<svg width="86" height="32" viewBox="0 0 86 32" fill="none" xmlns="http://www.w3.org/2000/svg">
<rect width="85.08" height="32" rx="8" fill="url(#paint0_linear_183_4854)"/>
<path fill-rule="evenodd" clip-rule="evenodd" d="M19.334 9.33341C19.334 8.96523 19.0355 8.66675 18.6673 8.66675C18.2991 8.66675 18.0007 8.96523 18.0007 9.33341V10.0001H14.0007V9.33341C14.0007 8.96523 13.7022 8.66675 13.334 8.66675C12.9658 8.66675 12.6673 8.96523 12.6673 9.33341V10.0012C12.3503 10.0033 12.0733 10.0099 11.8328 10.0295C11.458 10.0602 11.1136 10.1259 10.79 10.2907C10.2883 10.5464 9.8803 10.9543 9.62463 11.4561C9.45977 11.7797 9.39406 12.1241 9.36345 12.4989C9.33397 12.8597 9.33398 13.3026 9.33398 13.8392V19.4943C9.33398 20.0309 9.33397 20.4738 9.36345 20.8346C9.39406 21.2094 9.45977 21.5538 9.62463 21.8774C9.8803 22.3792 10.2883 22.7871 10.79 23.0428C11.1136 23.2076 11.458 23.2733 11.8328 23.304C12.1936 23.3334 12.6365 23.3334 13.1731 23.3334H18.8282C19.3648 23.3334 19.8077 23.3334 20.1685 23.304C20.5433 23.2733 20.8877 23.2076 21.2113 23.0428C21.7131 22.7871 22.121 22.3792 22.3767 21.8774C22.5415 21.5538 22.6072 21.2094 22.6379 20.8346C22.6673 20.4738 22.6673 20.0309 22.6673 19.4943V13.8392C22.6673 13.3026 22.6673 12.8597 22.6379 12.4989C22.6072 12.1241 22.5415 11.7797 22.3767 11.4561C22.121 10.9543 21.7131 10.5464 21.2113 10.2907C20.8877 10.1259 20.5433 10.0602 20.1685 10.0295C19.928 10.0099 19.651 10.0033 19.334 10.0012V9.33341ZM12.6673 12.0001V11.3346C12.3703 11.3367 12.1371 11.3425 11.9413 11.3584C11.6491 11.3823 11.4996 11.4256 11.3953 11.4787C11.1445 11.6066 10.9405 11.8105 10.8126 12.0614C10.7595 12.1657 10.7162 12.3152 10.6924 12.6074C10.6678 12.9075 10.6673 13.2957 10.6673 13.8667V14.0001H21.334V13.8667C21.334 13.2957 21.3335 12.9075 21.3089 12.6074C21.2851 12.3152 21.2418 12.1657 21.1887 12.0614C21.0608 11.8105 20.8569 11.6066 20.606 11.4787C20.5017 11.4256 20.3522 11.3823 20.06 11.3584C19.8642 11.3425 19.631 11.3367 19.334 11.3346V12.0001C19.334 12.3683 19.0355 12.6667 18.6673 12.6667C18.2991 12.6667 18.0007 12.3683 18.0007 12.0001V11.3334H14.0007V12.0001C14.0007 12.3683 13.7022 12.6667 13.334 12.6667C12.9658 12.6667 12.6673 12.3683 12.6673 12.0001ZM13.9086 16.673C14.5766 16.1181 15.4657 16.2811 15.9988 16.8871C16.532 16.2811 17.4096 16.124 18.0891 16.673C18.7686 17.2221 18.8511 18.1557 18.3265 18.812C18.0146 19.2023 17.2505 19.9021 16.6824 20.4054C16.4479 20.6131 16.3306 20.717 16.1894 20.7591C16.0687 20.7951 15.929 20.7951 15.8082 20.7591C15.6671 20.717 15.5498 20.6131 15.3153 20.4054C14.7471 19.9021 13.9831 19.2023 13.6711 18.812C13.1465 18.1557 13.2406 17.228 13.9086 16.673Z" fill="#553500"/>
<path d="M30.1214 20H28.2677L31.0922 11.8182H33.3214L36.1419 20H34.2882L32.2387 13.6879H32.1748L30.1214 20ZM30.0055 16.784H34.3841V18.1343H30.0055V16.784ZM39.0702 20.0999C38.6041 20.0999 38.182 19.98 37.8038 19.7403C37.4283 19.498 37.13 19.1424 36.9089 18.6737C36.6905 18.2022 36.5813 17.6243 36.5813 16.9398C36.5813 16.2367 36.6945 15.6521 36.9209 15.186C37.1473 14.7172 37.4482 14.367 37.8238 14.1353C38.202 13.9009 38.6161 13.7837 39.0662 13.7837C39.4098 13.7837 39.6961 13.8423 39.9252 13.9595C40.1569 14.074 40.3433 14.2179 40.4845 14.391C40.6283 14.5614 40.7375 14.7292 40.8121 14.8944H40.864V11.8182H42.5619V20H40.884V19.0172H40.8121C40.7322 19.1877 40.619 19.3568 40.4725 19.5246C40.3287 19.6897 40.1409 19.8269 39.9092 19.9361C39.6801 20.0453 39.4005 20.0999 39.0702 20.0999ZM39.6096 18.7456C39.8839 18.7456 40.1156 18.671 40.3047 18.5218C40.4964 18.37 40.6429 18.1583 40.7441 17.8866C40.848 17.615 40.8999 17.2967 40.8999 16.9318C40.8999 16.5669 40.8493 16.25 40.7481 15.981C40.6469 15.712 40.5004 15.5043 40.3087 15.3578C40.1169 15.2113 39.8839 15.1381 39.6096 15.1381C39.3299 15.1381 39.0942 15.214 38.9024 15.3658C38.7107 15.5176 38.5655 15.728 38.467 15.997C38.3684 16.266 38.3192 16.5776 38.3192 16.9318C38.3192 17.2887 38.3684 17.6043 38.467 17.8786C38.5682 18.1503 38.7133 18.3634 38.9024 18.5178C39.0942 18.6697 39.3299 18.7456 39.6096 18.7456ZM49.682 13.8636L47.5367 20H45.6191L43.4737 13.8636H45.2715L46.5459 18.2542H46.6098L47.8803 13.8636H49.682ZM52.138 20.1159C51.7464 20.1159 51.3975 20.0479 51.0913 19.9121C50.785 19.7736 50.5426 19.5699 50.3642 19.3009C50.1884 19.0292 50.1005 18.691 50.1005 18.2861C50.1005 17.9452 50.1631 17.6589 50.2883 17.4272C50.4134 17.1955 50.5839 17.0091 50.7996 16.8679C51.0154 16.7267 51.2604 16.6202 51.5347 16.5483C51.8117 16.4764 52.102 16.4258 52.4056 16.3965C52.7625 16.3592 53.0502 16.3246 53.2686 16.2926C53.4869 16.258 53.6454 16.2074 53.744 16.1408C53.8425 16.0742 53.8918 15.9757 53.8918 15.8452V15.8212C53.8918 15.5682 53.8119 15.3724 53.6521 15.2339C53.4949 15.0954 53.2712 15.0262 52.9809 15.0262C52.6746 15.0262 52.4309 15.0941 52.2498 15.2299C52.0687 15.3631 51.9489 15.5309 51.8903 15.7333L50.3162 15.6055C50.3961 15.2326 50.5533 14.9103 50.7876 14.6387C51.022 14.3643 51.3243 14.1539 51.6945 14.0075C52.0674 13.8583 52.4988 13.7837 52.9889 13.7837C53.3298 13.7837 53.6561 13.8237 53.9677 13.9036C54.282 13.9835 54.5603 14.1073 54.8026 14.2751C55.0477 14.4429 55.2408 14.6586 55.3819 14.9223C55.5231 15.1833 55.5937 15.4963 55.5937 15.8612V20H53.9797V19.1491H53.9317C53.8332 19.3408 53.7013 19.5099 53.5362 19.6564C53.3711 19.8002 53.1727 19.9134 52.941 19.996C52.7093 20.0759 52.4416 20.1159 52.138 20.1159ZM52.6254 18.9413C52.8757 18.9413 53.0968 18.892 53.2885 18.7935C53.4803 18.6923 53.6308 18.5565 53.74 18.386C53.8492 18.2156 53.9038 18.0225 53.9038 17.8067V17.1555C53.8505 17.1902 53.7773 17.2221 53.684 17.2514C53.5935 17.2781 53.4909 17.3034 53.3764 17.3273C53.2619 17.3486 53.1474 17.3686 53.0328 17.3873C52.9183 17.4032 52.8145 17.4179 52.7212 17.4312C52.5215 17.4605 52.347 17.5071 52.1979 17.571C52.0487 17.6349 51.9329 17.7215 51.8503 17.8307C51.7678 17.9372 51.7265 18.0704 51.7265 18.2302C51.7265 18.4619 51.8104 18.639 51.9782 18.7615C52.1486 18.8814 52.3643 18.9413 52.6254 18.9413ZM58.6159 16.4524V20H56.914V13.8636H58.536V14.9463H58.6079C58.7437 14.5894 58.9715 14.3071 59.2911 14.0993C59.6107 13.8889 59.9982 13.7837 60.4536 13.7837C60.8797 13.7837 61.2513 13.877 61.5682 14.0634C61.8852 14.2498 62.1315 14.5162 62.3073 14.8624C62.4831 15.206 62.571 15.6161 62.571 16.0929V20H60.8691V16.3965C60.8718 16.021 60.7759 15.728 60.5815 15.5176C60.387 15.3045 60.1194 15.198 59.7785 15.198C59.5494 15.198 59.347 15.2472 59.1712 15.3458C58.9981 15.4443 58.8623 15.5882 58.7637 15.7773C58.6678 15.9637 58.6186 16.1887 58.6159 16.4524ZM66.6849 20.1199C66.0563 20.1199 65.5156 19.9867 65.0629 19.7203C64.6128 19.4513 64.2665 19.0785 64.0242 18.6017C63.7845 18.125 63.6646 17.5763 63.6646 16.9558C63.6646 16.3272 63.7858 15.7759 64.0282 15.3018C64.2732 14.8251 64.6208 14.4536 65.0709 14.1872C65.521 13.9182 66.0563 13.7837 66.6769 13.7837C67.2122 13.7837 67.681 13.8809 68.0831 14.0754C68.4853 14.2698 68.8036 14.5428 69.0379 14.8944C69.2723 15.2459 69.4015 15.6587 69.4254 16.1328H67.8194C67.7742 15.8265 67.6543 15.5802 67.4599 15.3937C67.2681 15.2046 67.0164 15.1101 66.7048 15.1101C66.4412 15.1101 66.2108 15.182 66.0137 15.3258C65.8193 15.467 65.6675 15.6734 65.5583 15.945C65.4491 16.2167 65.3945 16.5456 65.3945 16.9318C65.3945 17.3233 65.4477 17.6562 65.5543 17.9306C65.6635 18.2049 65.8166 18.414 66.0137 18.5578C66.2108 18.7016 66.4412 18.7735 66.7048 18.7735C66.8993 18.7735 67.0737 18.7336 67.2282 18.6537C67.3853 18.5738 67.5145 18.4579 67.6157 18.3061C67.7196 18.1516 67.7875 17.9665 67.8194 17.7508H69.4254C69.3988 18.2195 69.271 18.6324 69.0419 18.9893C68.8155 19.3435 68.5026 19.6205 68.1031 19.8202C67.7036 20.02 67.2308 20.1199 66.6849 20.1199ZM73.3116 20.1199C72.6804 20.1199 72.1371 19.992 71.6816 19.7363C71.2289 19.478 70.88 19.1131 70.6349 18.6417C70.3899 18.1676 70.2674 17.607 70.2674 16.9598C70.2674 16.3286 70.3899 15.7746 70.6349 15.2979C70.88 14.8211 71.2249 14.4496 71.6697 14.1832C72.1171 13.9169 72.6418 13.7837 73.2437 13.7837C73.6485 13.7837 74.0254 13.849 74.3743 13.9795C74.7259 14.1073 75.0321 14.3004 75.2931 14.5588C75.5568 14.8171 75.7619 15.142 75.9084 15.5336C76.0549 15.9224 76.1281 16.3778 76.1281 16.8999V17.3673H70.9466V16.3126H74.5261C74.5261 16.0676 74.4728 15.8505 74.3663 15.6614C74.2598 15.4723 74.1119 15.3245 73.9229 15.218C73.7364 15.1088 73.5194 15.0542 73.2717 15.0542C73.0133 15.0542 72.7843 15.1141 72.5845 15.2339C72.3874 15.3511 72.233 15.5096 72.1211 15.7093C72.0092 15.9064 71.952 16.1262 71.9493 16.3685V17.3713C71.9493 17.6749 72.0052 17.9372 72.1171 18.1583C72.2316 18.3794 72.3928 18.5498 72.6005 18.6697C72.8082 18.7895 73.0546 18.8494 73.3396 18.8494C73.5287 18.8494 73.7018 18.8228 73.8589 18.7695C74.0161 18.7163 74.1506 18.6364 74.2624 18.5298C74.3743 18.4233 74.4595 18.2928 74.5181 18.1383L76.0922 18.2422C76.0123 18.6204 75.8485 18.9506 75.6008 19.233C75.3557 19.5126 75.0388 19.731 74.6499 19.8881C74.2638 20.0426 73.8176 20.1199 73.3116 20.1199Z" fill="#553500"/>
<defs>
<linearGradient id="paint0_linear_183_4854" x1="12.5326" y1="-12.9778" x2="72.5474" y2="44.9778" gradientUnits="userSpaceOnUse">
<stop offset="0.0523" stop-color="#F1F1BC"/>
<stop offset="0.4924" stop-color="#E4BD34"/>
<stop offset="0.9424" stop-color="#DAA305"/>
</linearGradient>
</defs>
</svg>
