<svg width="35" height="35" viewBox="0 0 35 35" fill="none" xmlns="http://www.w3.org/2000/svg">
<g clip-path="url(#clip0_284_1827)">
<rect width="35" height="35" rx="17.5" fill="white"/>
<g clip-path="url(#clip1_284_1827)">
<path d="M25.7018 14.0827C24.2681 14.9687 23.3825 16.4875 23.3825 18.175C23.3825 20.0735 24.5211 21.8033 26.25 22.5205C25.9127 23.6174 25.4066 24.63 24.7741 25.5581C23.8464 26.866 22.8765 28.216 21.4428 28.216C20.009 28.216 19.5873 27.3722 17.9006 27.3722C16.256 27.3722 15.6657 28.2582 14.3163 28.2582C12.9669 28.2582 12.0392 27.0347 10.9849 25.5159C9.59337 23.4065 8.79217 20.9595 8.75 18.386C8.75 14.2093 11.4488 11.9733 14.1476 11.9733C15.5813 11.9733 16.762 12.9014 17.6476 12.9014C18.491 12.9014 19.8404 11.9311 21.4428 11.9311C23.1295 11.8889 24.7319 12.6905 25.7018 14.0827ZM20.6837 10.1591C21.4006 9.31535 21.7801 8.26063 21.8223 7.16371C21.8223 7.03714 21.8223 6.86839 21.7801 6.74182C20.5572 6.86839 19.4187 7.45903 18.6175 8.38719C17.9006 9.18878 17.4789 10.2013 17.4367 11.2982C17.4367 11.4248 17.4367 11.5514 17.4789 11.6779C17.5633 11.6779 17.6898 11.7201 17.7741 11.7201C18.9127 11.6357 19.9669 11.0451 20.6837 10.1591Z" fill="black"/>
</g>
</g>
<defs>
<clipPath id="clip0_284_1827">
<rect width="35" height="35" fill="white"/>
</clipPath>
<clipPath id="clip1_284_1827">
<rect width="17.5" height="21.5164" fill="white" transform="translate(8.75 6.74182)"/>
</clipPath>
</defs>
</svg>
