<svg width="18" height="18" viewBox="0 0 18 18" fill="none" xmlns="http://www.w3.org/2000/svg">
<path d="M16.3125 5.06247H11.25C10.8134 5.06247 10.3827 5.16413 9.99221 5.35939C9.60168 5.55466 9.26198 5.83817 9 6.18747C8.73802 5.83817 8.39832 5.55466 8.00779 5.35939C7.61726 5.16413 7.18663 5.06247 6.75 5.06247H1.6875C1.53832 5.06247 1.39524 5.12173 1.28975 5.22722C1.18426 5.33271 1.125 5.47579 1.125 5.62497V14.0625C1.125 14.2117 1.18426 14.3547 1.28975 14.4602C1.39524 14.5657 1.53832 14.625 1.6875 14.625H6.75C7.19755 14.625 7.62678 14.8028 7.94324 15.1192C8.25971 15.4357 8.4375 15.8649 8.4375 16.3125C8.4375 16.4617 8.49676 16.6047 8.60225 16.7102C8.70774 16.8157 8.85082 16.875 9 16.875C9.14918 16.875 9.29226 16.8157 9.39775 16.7102C9.50324 16.6047 9.5625 16.4617 9.5625 16.3125C9.5625 15.8649 9.74029 15.4357 10.0568 15.1192C10.3732 14.8028 10.8024 14.625 11.25 14.625H16.3125C16.4617 14.625 16.6048 14.5657 16.7102 14.4602C16.8157 14.3547 16.875 14.2117 16.875 14.0625V5.62497C16.875 5.47579 16.8157 5.33271 16.7102 5.22722C16.6048 5.12173 16.4617 5.06247 16.3125 5.06247ZM6.75 13.5H2.25V6.18747H6.75C7.19755 6.18747 7.62678 6.36526 7.94324 6.68173C8.25971 6.9982 8.4375 7.42742 8.4375 7.87497V14.0625C7.95112 13.6965 7.3587 13.499 6.75 13.5ZM15.75 13.5H11.25C10.6413 13.499 10.0489 13.6965 9.5625 14.0625V7.87497C9.5625 7.42742 9.74029 6.9982 10.0568 6.68173C10.3732 6.36526 10.8024 6.18747 11.25 6.18747H15.75V13.5ZM6.3 3.03677C6.61437 2.61761 7.02202 2.27739 7.49065 2.04308C7.95929 1.80876 8.47605 1.68677 9 1.68677C9.52395 1.68677 10.0407 1.80876 10.5093 2.04308C10.978 2.27739 11.3856 2.61761 11.7 3.03677C11.7897 3.15602 11.8283 3.30602 11.8074 3.45377C11.7865 3.60153 11.7078 3.73492 11.5886 3.82462C11.4693 3.91432 11.3193 3.95297 11.1715 3.93207C11.0238 3.91117 10.8904 3.83243 10.8007 3.71317C10.5911 3.43347 10.3193 3.20642 10.0068 3.05004C9.69419 2.89365 9.3495 2.81224 9 2.81224C8.6505 2.81224 8.30581 2.89365 7.99325 3.05004C7.68068 3.20642 7.40885 3.43347 7.1993 3.71317C7.15488 3.77222 7.09927 3.82195 7.03564 3.8595C6.97201 3.89706 6.90161 3.92172 6.82845 3.93207C6.75529 3.94241 6.68081 3.93825 6.60926 3.91982C6.53771 3.90138 6.47049 3.86903 6.41145 3.82462C6.3524 3.78021 6.30267 3.7246 6.26512 3.66097C6.22756 3.59734 6.2029 3.52693 6.19255 3.45377C6.1822 3.38062 6.18637 3.30613 6.2048 3.23458C6.22324 3.16303 6.25559 3.09582 6.3 3.03677Z" fill="#6A6A6A"/>
</svg>
