<svg width="18" height="16" viewBox="0 0 18 16" fill="none" xmlns="http://www.w3.org/2000/svg">
<path d="M14.3334 4.66663H3.6667C2.93032 4.66663 2.33337 5.26358 2.33337 5.99995V12.6666C2.33337 13.403 2.93032 14 3.6667 14H14.3334C15.0698 14 15.6667 13.403 15.6667 12.6666V5.99995C15.6667 5.26358 15.0698 4.66663 14.3334 4.66663Z" stroke="#6A6A6A" stroke-width="1.41176" stroke-linecap="round" stroke-linejoin="round"/>
<path d="M11.6667 14V3.33334C11.6667 2.97971 11.5262 2.64057 11.2762 2.39052C11.0261 2.14048 10.687 2 10.3334 2H7.6667C7.31308 2 6.97395 2.14048 6.7239 2.39052C6.47384 2.64057 6.33337 2.97971 6.33337 3.33334V14" stroke="#6A6A6A" stroke-width="1.41176" stroke-linecap="round" stroke-linejoin="round"/>
</svg>
