<svg width="72" height="32" viewBox="0 0 72 32" fill="none" xmlns="http://www.w3.org/2000/svg">
<rect width="72" height="32" rx="8" fill="url(#paint0_linear_183_5281)"/>
<path d="M8.71112 20V11.8182H11.987C12.589 11.8182 13.091 11.9074 13.4932 12.0858C13.8953 12.2643 14.1976 12.512 14.4 12.8289C14.6025 13.1432 14.7037 13.5054 14.7037 13.9156C14.7037 14.2352 14.6397 14.5162 14.5119 14.7585C14.3841 14.9982 14.2083 15.1953 13.9846 15.3498C13.7635 15.5016 13.5105 15.6095 13.2255 15.6734V15.7533C13.5371 15.7666 13.8287 15.8545 14.1004 16.017C14.3747 16.1794 14.5971 16.4071 14.7676 16.7001C14.938 16.9904 15.0233 17.3366 15.0233 17.7388C15.0233 18.1729 14.9154 18.5605 14.6997 18.9014C14.4866 19.2396 14.171 19.5073 13.7528 19.7044C13.3347 19.9015 12.8193 20 12.2068 20H8.71112ZM10.441 18.5858H11.8512C12.3333 18.5858 12.6848 18.4939 12.9059 18.3101C13.127 18.1237 13.2375 17.876 13.2375 17.567C13.2375 17.3406 13.1829 17.1409 13.0737 16.9678C12.9645 16.7947 12.8087 16.6588 12.6063 16.5603C12.4065 16.4617 12.1681 16.4125 11.8912 16.4125H10.441V18.5858ZM10.441 15.2419H11.7234C11.9604 15.2419 12.1708 15.2006 12.3546 15.1181C12.541 15.0328 12.6875 14.913 12.794 14.7585C12.9032 14.604 12.9578 14.4189 12.9578 14.2032C12.9578 13.9076 12.8526 13.6692 12.6422 13.4881C12.4345 13.307 12.1388 13.2164 11.7553 13.2164H10.441V15.2419ZM17.1676 22.3011C16.9519 22.3011 16.7494 22.2838 16.5603 22.2492C16.3739 22.2172 16.2194 22.176 16.0969 22.1254L16.4804 20.8549C16.6802 20.9162 16.86 20.9495 17.0198 20.9548C17.1822 20.9601 17.3221 20.9229 17.4393 20.843C17.5591 20.7631 17.6563 20.6272 17.7309 20.4355L17.8308 20.1758L15.6295 13.8636H17.4193L18.6897 18.37H18.7536L20.036 13.8636H21.8378L19.4527 20.6632C19.3382 20.9934 19.1824 21.2811 18.9853 21.5261C18.7909 21.7738 18.5445 21.9642 18.2462 22.0974C17.948 22.2332 17.5884 22.3011 17.1676 22.3011ZM30.7697 14.4629C30.7137 14.2685 30.6352 14.0967 30.534 13.9475C30.4328 13.7957 30.3089 13.6679 30.1624 13.564C30.0186 13.4575 29.8535 13.3762 29.667 13.3203C29.4833 13.2644 29.2795 13.2364 29.0558 13.2364C28.6377 13.2364 28.2701 13.3403 27.9532 13.548C27.6389 13.7558 27.3939 14.0581 27.2181 14.4549C27.0423 14.8491 26.9544 15.3311 26.9544 15.9011C26.9544 16.4711 27.041 16.9558 27.2141 17.3553C27.3872 17.7548 27.6322 18.0597 27.9492 18.2702C28.2661 18.4779 28.6403 18.5818 29.0718 18.5818C29.4633 18.5818 29.7975 18.5125 30.0745 18.374C30.3542 18.2329 30.5673 18.0344 30.7137 17.7788C30.8629 17.5231 30.9375 17.2208 30.9375 16.8719L31.289 16.9238H29.1796V15.6214H32.6034V16.6522C32.6034 17.3713 32.4516 17.9892 32.1479 18.5059C31.8443 19.0199 31.4262 19.4167 30.8935 19.6964C30.3608 19.9734 29.7509 20.1119 29.0638 20.1119C28.2967 20.1119 27.6229 19.9427 27.0423 19.6045C26.4617 19.2636 26.0089 18.7802 25.684 18.1543C25.3617 17.5257 25.2006 16.78 25.2006 15.9171C25.2006 15.2539 25.2965 14.6626 25.4882 14.1433C25.6827 13.6213 25.9543 13.1792 26.3032 12.8169C26.6521 12.4547 27.0583 12.1791 27.5217 11.99C27.9851 11.8009 28.4872 11.7063 29.0278 11.7063C29.4913 11.7063 29.9227 11.7742 30.3222 11.9101C30.7217 12.0432 31.076 12.2323 31.3849 12.4774C31.6965 12.7224 31.9509 13.014 32.1479 13.3523C32.345 13.6879 32.4715 14.0581 32.5275 14.4629H30.7697ZM36.6434 20.1199C36.0228 20.1199 35.4861 19.988 35.0334 19.7243C34.5833 19.458 34.2357 19.0878 33.9907 18.6137C33.7456 18.137 33.6231 17.5843 33.6231 16.9558C33.6231 16.3219 33.7456 15.7679 33.9907 15.2939C34.2357 14.8171 34.5833 14.4469 35.0334 14.1832C35.4861 13.9169 36.0228 13.7837 36.6434 13.7837C37.2639 13.7837 37.7992 13.9169 38.2494 14.1832C38.7021 14.4469 39.051 14.8171 39.2961 15.2939C39.5411 15.7679 39.6636 16.3219 39.6636 16.9558C39.6636 17.5843 39.5411 18.137 39.2961 18.6137C39.051 19.0878 38.7021 19.458 38.2494 19.7243C37.7992 19.988 37.2639 20.1199 36.6434 20.1199ZM36.6513 18.8015C36.9337 18.8015 37.1694 18.7216 37.3585 18.5618C37.5476 18.3993 37.6901 18.1783 37.7859 17.8986C37.8845 17.619 37.9337 17.3007 37.9337 16.9438C37.9337 16.5869 37.8845 16.2686 37.7859 15.989C37.6901 15.7093 37.5476 15.4883 37.3585 15.3258C37.1694 15.1634 36.9337 15.0821 36.6513 15.0821C36.3664 15.0821 36.1267 15.1634 35.9322 15.3258C35.7405 15.4883 35.5953 15.7093 35.4968 15.989C35.4009 16.2686 35.353 16.5869 35.353 16.9438C35.353 17.3007 35.4009 17.619 35.4968 17.8986C35.5953 18.1783 35.7405 18.3993 35.9322 18.5618C36.1267 18.7216 36.3664 18.8015 36.6513 18.8015ZM43.5428 20.1199C42.9222 20.1199 42.3855 19.988 41.9328 19.7243C41.4827 19.458 41.1351 19.0878 40.8901 18.6137C40.645 18.137 40.5225 17.5843 40.5225 16.9558C40.5225 16.3219 40.645 15.7679 40.8901 15.2939C41.1351 14.8171 41.4827 14.4469 41.9328 14.1832C42.3855 13.9169 42.9222 13.7837 43.5428 13.7837C44.1633 13.7837 44.6987 13.9169 45.1488 14.1832C45.6015 14.4469 45.9504 14.8171 46.1955 15.2939C46.4405 15.7679 46.563 16.3219 46.563 16.9558C46.563 17.5843 46.4405 18.137 46.1955 18.6137C45.9504 19.0878 45.6015 19.458 45.1488 19.7243C44.6987 19.988 44.1633 20.1199 43.5428 20.1199ZM43.5508 18.8015C43.8331 18.8015 44.0688 18.7216 44.2579 18.5618C44.447 18.3993 44.5895 18.1783 44.6853 17.8986C44.7839 17.619 44.8332 17.3007 44.8332 16.9438C44.8332 16.5869 44.7839 16.2686 44.6853 15.989C44.5895 15.7093 44.447 15.4883 44.2579 15.3258C44.0688 15.1634 43.8331 15.0821 43.5508 15.0821C43.2658 15.0821 43.0261 15.1634 42.8317 15.3258C42.6399 15.4883 42.4947 15.7093 42.3962 15.989C42.3003 16.2686 42.2524 16.5869 42.2524 16.9438C42.2524 17.3007 42.3003 17.619 42.3962 17.8986C42.4947 18.1783 42.6399 18.3993 42.8317 18.5618C43.0261 18.7216 43.2658 18.8015 43.5508 18.8015ZM50.4342 22.429C49.8829 22.429 49.4101 22.3531 49.016 22.2013C48.6244 22.0521 48.3128 21.8484 48.0811 21.59C47.8494 21.3317 47.6989 21.0414 47.6297 20.7191L49.2037 20.5074C49.2517 20.6299 49.3276 20.7444 49.4314 20.8509C49.5353 20.9575 49.6725 21.0427 49.8429 21.1066C50.016 21.1732 50.2265 21.2065 50.4741 21.2065C50.8443 21.2065 51.1493 21.1159 51.389 20.9348C51.6314 20.7564 51.7526 20.4568 51.7526 20.036V18.9134H51.6806C51.6061 19.0838 51.4942 19.2449 51.3451 19.3968C51.1959 19.5486 51.0042 19.6724 50.7698 19.7683C50.5354 19.8642 50.2557 19.9121 49.9308 19.9121C49.4701 19.9121 49.0506 19.8056 48.6724 19.5925C48.2969 19.3768 47.9972 19.0479 47.7735 18.6057C47.5524 18.161 47.4419 17.599 47.4419 16.9198C47.4419 16.2247 47.5551 15.6441 47.7815 15.178C48.0079 14.7119 48.3088 14.363 48.6844 14.1313C49.0626 13.8996 49.4767 13.7837 49.9268 13.7837C50.2704 13.7837 50.558 13.8423 50.7898 13.9595C51.0215 14.074 51.2079 14.2179 51.3491 14.391C51.4929 14.5614 51.6034 14.7292 51.6806 14.8944H51.7446V13.8636H53.4345V20.0599C53.4345 20.5819 53.3066 21.0187 53.0509 21.3703C52.7953 21.7219 52.441 21.9855 51.9883 22.1613C51.5382 22.3398 51.0201 22.429 50.4342 22.429ZM50.4701 18.6337C50.7445 18.6337 50.9762 18.5658 51.1653 18.43C51.357 18.2915 51.5035 18.0944 51.6047 17.8387C51.7086 17.5803 51.7605 17.2714 51.7605 16.9118C51.7605 16.5523 51.7099 16.2407 51.6087 15.977C51.5075 15.7107 51.361 15.5043 51.1693 15.3578C50.9775 15.2113 50.7445 15.1381 50.4701 15.1381C50.1905 15.1381 49.9548 15.214 49.763 15.3658C49.5713 15.5149 49.4261 15.7227 49.3276 15.989C49.229 16.2553 49.1798 16.5629 49.1798 16.9118C49.1798 17.2661 49.229 17.5724 49.3276 17.8307C49.4288 18.0864 49.5739 18.2848 49.763 18.426C49.9548 18.5645 50.1905 18.6337 50.4701 18.6337ZM56.4907 11.8182V20H54.7888V11.8182H56.4907ZM60.6505 20.1199C60.0193 20.1199 59.4759 19.992 59.0205 19.7363C58.5677 19.478 58.2188 19.1131 57.9738 18.6417C57.7288 18.1676 57.6063 17.607 57.6063 16.9598C57.6063 16.3286 57.7288 15.7746 57.9738 15.2979C58.2188 14.8211 58.5637 14.4496 59.0085 14.1832C59.456 13.9169 59.9806 13.7837 60.5826 13.7837C60.9874 13.7837 61.3643 13.849 61.7132 13.9795C62.0647 14.1073 62.371 14.3004 62.632 14.5588C62.8957 14.8171 63.1008 15.142 63.2472 15.5336C63.3937 15.9224 63.467 16.3778 63.467 16.8999V17.3673H58.2854V16.3126H61.865C61.865 16.0676 61.8117 15.8505 61.7052 15.6614C61.5986 15.4723 61.4508 15.3245 61.2617 15.218C61.0753 15.1088 60.8582 15.0542 60.6105 15.0542C60.3522 15.0542 60.1231 15.1141 59.9234 15.2339C59.7263 15.3511 59.5718 15.5096 59.46 15.7093C59.3481 15.9064 59.2908 16.1262 59.2882 16.3685V17.3713C59.2882 17.6749 59.3441 17.9372 59.456 18.1583C59.5705 18.3794 59.7316 18.5498 59.9394 18.6697C60.1471 18.7895 60.3935 18.8494 60.6784 18.8494C60.8675 18.8494 61.0407 18.8228 61.1978 18.7695C61.3549 18.7163 61.4894 18.6364 61.6013 18.5298C61.7132 18.4233 61.7984 18.2928 61.857 18.1383L63.431 18.2422C63.3511 18.6204 63.1873 18.9506 62.9396 19.233C62.6946 19.5126 62.3777 19.731 61.9888 19.8881C61.6026 20.0426 61.1565 20.1199 60.6505 20.1199Z" fill="#553500"/>
<defs>
<linearGradient id="paint0_linear_183_5281" x1="10.6058" y1="-12.9778" x2="69.4545" y2="35.1148" gradientUnits="userSpaceOnUse">
<stop offset="0.0523" stop-color="#F1F1BC"/>
<stop offset="0.4924" stop-color="#E4BD34"/>
<stop offset="0.9424" stop-color="#DAA305"/>
</linearGradient>
</defs>
</svg>
