<svg width="16" height="16" viewBox="0 0 16 16" fill="none" xmlns="http://www.w3.org/2000/svg">
<mask id="mask0_183_4964" style="mask-type:luminance" maskUnits="userSpaceOnUse" x="0" y="0" width="16" height="16">
<path d="M16 0H0V16H16V0Z" fill="white"/>
</mask>
<g mask="url(#mask0_183_4964)">
<path d="M4.06295 7.4859C4.02151 7.21886 4.00002 6.94528 4.00002 6.66671C4.00002 3.72119 6.40354 1.33337 9.36844 1.33337C12.3333 1.33337 14.7369 3.72119 14.7369 6.66671C14.7369 7.33209 14.6142 7.96901 14.3901 8.55638C14.3436 8.67837 14.3203 8.73936 14.3098 8.78698C14.2993 8.83416 14.2953 8.86736 14.2941 8.91567C14.293 8.96444 14.2996 9.01816 14.3128 9.12559L14.5812 11.3057C14.6103 11.5417 14.6248 11.6597 14.5855 11.7455C14.5511 11.8207 14.49 11.8804 14.4141 11.913C14.3274 11.9503 14.2098 11.9331 13.9745 11.8986L11.851 11.5873C11.7401 11.5711 11.6847 11.5629 11.6342 11.5632C11.5843 11.5635 11.5497 11.5672 11.5008 11.5775C11.4514 11.5879 11.3883 11.6115 11.262 11.6588C10.6732 11.8794 10.035 12 9.36844 12C9.08964 12 8.81582 11.9789 8.54848 11.9382M5.08776 14.6667C7.06436 14.6667 8.66671 13.0251 8.66671 11C8.66671 8.975 7.06436 7.33337 5.08776 7.33337C3.11116 7.33337 1.50881 8.975 1.50881 11C1.50881 11.4071 1.57356 11.7987 1.69307 12.1645C1.74359 12.3192 1.76885 12.3965 1.77715 12.4493C1.7858 12.5045 1.78732 12.5355 1.78409 12.5912C1.78101 12.6446 1.76765 12.7049 1.74094 12.8256L1.33337 14.6667L3.32991 14.394C3.43888 14.3792 3.49337 14.3717 3.54095 14.372C3.59105 14.3724 3.61764 14.3751 3.66678 14.3849C3.71344 14.3942 3.78281 14.4187 3.92155 14.4676C4.2871 14.5967 4.67945 14.6667 5.08776 14.6667Z" stroke="#131313" stroke-width="1.5" stroke-linecap="round" stroke-linejoin="round"/>
</g>
</svg>
