<svg width="87" height="87" viewBox="0 0 87 87" fill="none" xmlns="http://www.w3.org/2000/svg">
<g clip-path="url(#clip0_183_5204)">
<rect x="0.659912" y="0.580078" width="86" height="86" rx="43" fill="white"/>
<g clip-path="url(#clip1_183_5204)">
<path d="M56.1862 41.177C49.3603 37.1233 38.1011 36.7506 31.585 38.7283C30.5385 39.0459 29.4319 38.4549 29.115 37.4088C28.7978 36.3617 29.3879 35.2559 30.4351 34.9378C37.9152 32.6673 50.3498 33.1058 58.2079 37.7704C59.149 38.3293 59.4578 39.5448 58.9 40.4844C58.3416 41.4255 57.1251 41.7358 56.1862 41.177ZM55.9627 47.1811C55.4837 47.9582 54.4677 48.202 53.6917 47.7248C48.0009 44.2267 39.3234 43.2134 32.5908 45.2571C31.7177 45.5209 30.7956 45.0286 30.5303 44.1572C30.2673 43.2841 30.7598 42.3636 31.6313 42.0981C39.3223 39.7643 48.8834 40.8947 55.4195 44.9113C56.1956 45.3893 56.4398 46.4058 55.9627 47.1811ZM53.3716 52.9473C52.991 53.5713 52.1785 53.7668 51.5567 53.3864C46.584 50.3473 40.3251 49.661 32.954 51.3445C32.2437 51.5074 31.5358 51.0623 31.3738 50.352C31.2111 49.642 31.6545 48.934 32.3664 48.7719C40.4327 46.9279 47.3521 47.7215 52.9336 51.1322C53.5559 51.5122 53.7519 52.3252 53.3716 52.9473ZM43.66 22.4042C31.9651 22.4042 22.4841 31.885 22.4841 43.5797C22.4841 55.2759 31.9651 64.7559 43.66 64.7559C55.3553 64.7559 64.8358 55.2759 64.8358 43.5797C64.8358 31.885 55.3553 22.4042 43.66 22.4042Z" fill="#1ED760"/>
</g>
<g clip-path="url(#clip2_183_5204)">
<path d="M56.1862 41.177C49.3603 37.1233 38.1011 36.7506 31.585 38.7283C30.5385 39.0459 29.4319 38.4549 29.115 37.4088C28.7978 36.3617 29.3879 35.2559 30.4351 34.9378C37.9152 32.6673 50.3498 33.1058 58.2079 37.7704C59.149 38.3293 59.4578 39.5448 58.9 40.4844C58.3416 41.4255 57.1251 41.7358 56.1862 41.177ZM55.9627 47.1811C55.4837 47.9582 54.4677 48.202 53.6917 47.7248C48.0009 44.2267 39.3234 43.2134 32.5908 45.2571C31.7177 45.5209 30.7956 45.0286 30.5303 44.1572C30.2673 43.2841 30.7598 42.3636 31.6313 42.0981C39.3223 39.7643 48.8834 40.8947 55.4195 44.9113C56.1956 45.3893 56.4398 46.4058 55.9627 47.1811ZM53.3716 52.9473C52.991 53.5713 52.1785 53.7668 51.5567 53.3864C46.584 50.3473 40.3251 49.661 32.954 51.3445C32.2437 51.5074 31.5358 51.0623 31.3738 50.352C31.2111 49.642 31.6545 48.934 32.3664 48.7719C40.4327 46.9279 47.3521 47.7215 52.9336 51.1322C53.5559 51.5122 53.7519 52.3252 53.3716 52.9473ZM43.66 22.4042C31.9651 22.4042 22.4841 31.885 22.4841 43.5797C22.4841 55.2759 31.9651 64.7559 43.66 64.7559C55.3553 64.7559 64.8358 55.2759 64.8358 43.5797C64.8358 31.885 55.3553 22.4042 43.66 22.4042Z" fill="#1ED760"/>
</g>
</g>
<defs>
<clipPath id="clip0_183_5204">
<rect width="86" height="86" fill="white" transform="translate(0.659912 0.580078)"/>
</clipPath>
<clipPath id="clip1_183_5204">
<rect width="43" height="43" fill="white" transform="translate(22.1599 22.0801)"/>
</clipPath>
<clipPath id="clip2_183_5204">
<rect width="43" height="43" fill="white" transform="translate(22.1599 22.0801)"/>
</clipPath>
</defs>
</svg>
